<mxfile host="Electron" modified="2024-11-27T12:07:05.032Z" agent="Mozilla/5.0 (Windows NT 10.0; Win64; x64) AppleWebKit/537.36 (KHTML, like Gecko) draw.io/24.2.5 Chrome/120.0.6099.109 Electron/28.1.0 Safari/537.36" etag="5dw_t4gakua9sgzO7Tzm" version="24.2.5" type="device">
  <diagram name="Page-1" id="tq8JZiwGVCdDdvOJNd00">
    <mxGraphModel dx="1050" dy="629" grid="1" gridSize="10" guides="1" tooltips="1" connect="1" arrows="1" fold="1" page="1" pageScale="1" pageWidth="850" pageHeight="1100" math="0" shadow="0">
      <root>
        <mxCell id="0" />
        <mxCell id="1" parent="0" />
        <mxCell id="78zayhJWeQad2usZaqRY-1" value="Representative&lt;div&gt;&lt;br&gt;&lt;/div&gt;" style="shape=umlLifeline;participant=umlActor;perimeter=lifelinePerimeter;whiteSpace=wrap;html=1;container=1;collapsible=0;recursiveResize=0;verticalAlign=top;spacingTop=36;outlineConnect=0;fontSize=20;fontStyle=1;size=40;" vertex="1" parent="1">
          <mxGeometry x="220" y="70" width="40" height="300" as="geometry" />
        </mxCell>
        <mxCell id="78zayhJWeQad2usZaqRY-2" value="&lt;br&gt;&lt;div&gt;Constituency connect&lt;/div&gt;&lt;div&gt;System&lt;/div&gt;" style="html=1;align=center;verticalAlign=middle;dashed=0;fontSize=16;" vertex="1" parent="1">
          <mxGeometry x="590" y="70" width="160" height="70" as="geometry" />
        </mxCell>
        <mxCell id="78zayhJWeQad2usZaqRY-3" value="" style="endArrow=none;dashed=1;html=1;rounded=0;entryX=0.5;entryY=1;entryDx=0;entryDy=0;" edge="1" parent="1">
          <mxGeometry width="50" height="50" relative="1" as="geometry">
            <mxPoint x="680" y="380" as="sourcePoint" />
            <mxPoint x="680" y="140" as="targetPoint" />
          </mxGeometry>
        </mxCell>
        <mxCell id="78zayhJWeQad2usZaqRY-4" value="" style="endArrow=classic;html=1;rounded=0;" edge="1" parent="1" source="78zayhJWeQad2usZaqRY-1">
          <mxGeometry width="50" height="50" relative="1" as="geometry">
            <mxPoint x="240" y="220" as="sourcePoint" />
            <mxPoint x="680.5" y="220" as="targetPoint" />
            <Array as="points">
              <mxPoint x="560.5" y="220" />
            </Array>
          </mxGeometry>
        </mxCell>
        <mxCell id="78zayhJWeQad2usZaqRY-5" value="EnterCredentials(Username,Password)" style="text;html=1;strokeColor=none;fillColor=none;align=center;verticalAlign=middle;whiteSpace=wrap;rounded=0;" vertex="1" parent="1">
          <mxGeometry x="340" y="190" width="210" height="30" as="geometry" />
        </mxCell>
        <mxCell id="78zayhJWeQad2usZaqRY-6" value="SendNotification(ComplaintId,User)" style="html=1;verticalAlign=bottom;endArrow=open;dashed=1;endSize=8;curved=0;rounded=0;" edge="1" parent="1" target="78zayhJWeQad2usZaqRY-10">
          <mxGeometry relative="1" as="geometry">
            <mxPoint x="675.5" y="320" as="sourcePoint" />
            <mxPoint x="175" y="320" as="targetPoint" />
            <Array as="points">
              <mxPoint x="430" y="320" />
            </Array>
          </mxGeometry>
        </mxCell>
        <mxCell id="78zayhJWeQad2usZaqRY-8" value="" style="endArrow=classic;html=1;rounded=0;" edge="1" parent="1">
          <mxGeometry width="50" height="50" relative="1" as="geometry">
            <mxPoint x="240" y="270" as="sourcePoint" />
            <mxPoint x="680.5" y="270" as="targetPoint" />
            <Array as="points">
              <mxPoint x="560.5" y="270" />
            </Array>
          </mxGeometry>
        </mxCell>
        <mxCell id="78zayhJWeQad2usZaqRY-9" value="UpdateComplaintStatus(ComplaintId,Status)" style="text;html=1;strokeColor=none;fillColor=none;align=center;verticalAlign=middle;whiteSpace=wrap;rounded=0;" vertex="1" parent="1">
          <mxGeometry x="330" y="240" width="210" height="30" as="geometry" />
        </mxCell>
        <mxCell id="78zayhJWeQad2usZaqRY-10" value="Constituent" style="shape=umlLifeline;participant=umlActor;perimeter=lifelinePerimeter;whiteSpace=wrap;html=1;container=1;collapsible=0;recursiveResize=0;verticalAlign=top;spacingTop=36;outlineConnect=0;fontSize=20;fontStyle=1;size=40;" vertex="1" parent="1">
          <mxGeometry x="70" y="70" width="40" height="300" as="geometry" />
        </mxCell>
        <mxCell id="78zayhJWeQad2usZaqRY-11" value="Update Complaint Status" style="text;html=1;align=center;verticalAlign=middle;resizable=0;points=[];autosize=1;strokeColor=none;fillColor=none;fontSize=18;fontStyle=1" vertex="1" parent="1">
          <mxGeometry x="30" y="5" width="220" height="40" as="geometry" />
        </mxCell>
      </root>
    </mxGraphModel>
  </diagram>
</mxfile>
